<svg width="21" height="21" viewBox="0 0 21 21" fill="none" xmlns="http://www.w3.org/2000/svg">
<path d="M10.5 0.356445L10.2202 0.36029C4.82942 0.508608 0.5 4.93 0.5 10.3564C0.5 15.8664 4.98 20.3564 10.5 20.3564C16.01 20.3564 20.5 15.8664 20.5 10.3564C20.5 4.83645 16.01 0.356445 10.5 0.356445ZM8.52 6.35645C8.82 6.05645 9.29 6.05645 9.58 6.35645L13.07 9.82645C13.21 9.96645 13.29 10.1564 13.29 10.3564C13.29 10.5564 13.21 10.7464 13.07 10.8864L9.58 14.3564C9.44 14.5064 9.25 14.5764 9.06 14.5764C8.86 14.5764 8.67 14.5064 8.52 14.3564C8.23 14.0564 8.23 13.5864 8.53 13.2964L11.48 10.3564L8.53 7.41645C8.23 7.12645 8.23 6.64645 8.52 6.35645Z" fill="#FAFAFA"/>
</svg>
