<svg width="20" height="21" viewBox="0 0 20 21" fill="none" xmlns="http://www.w3.org/2000/svg">
<path d="M10 0.356445L9.72023 0.36029C4.32942 0.508608 0 4.93 0 10.3564C0 15.8664 4.48 20.3564 10 20.3564C15.51 20.3564 20 15.8664 20 10.3564C20 4.83645 15.51 0.356445 10 0.356445ZM8.02 6.35645C8.32 6.05645 8.79 6.05645 9.08 6.35645L12.57 9.82645C12.71 9.96645 12.79 10.1564 12.79 10.3564C12.79 10.5564 12.71 10.7464 12.57 10.8864L9.08 14.3564C8.94 14.5064 8.75 14.5764 8.56 14.5764C8.36 14.5764 8.17 14.5064 8.02 14.3564C7.73 14.0564 7.73 13.5864 8.03 13.2964L10.98 10.3564L8.03 7.41645C7.73 7.12645 7.73 6.64645 8.02 6.35645Z" fill="#171717"/>
</svg>
