<svg width="84" height="24" viewBox="0 0 84 24" fill="none" xmlns="http://www.w3.org/2000/svg">
<path d="M2.67593 15.3277V15.8138H3.16203H4.6743C5.9849 15.8138 7.03735 15.5918 7.77066 15.0565C8.53571 14.4979 8.87235 13.6607 8.87235 12.6387C8.87235 11.4872 8.39226 10.5727 7.53243 10.0681C6.72725 9.59567 5.65336 9.46348 4.46809 9.46348H3.16203H2.67593V9.94958V15.3277ZM8.97906 8.69603L8.97898 8.69617L8.99019 8.70189C9.70895 9.06864 10.2541 9.56293 10.6226 10.188C10.9918 10.8145 11.1997 11.5997 11.1997 12.5714C11.1997 14.0177 10.7696 15.1917 9.79871 16.016C8.81324 16.8528 7.19319 17.3963 4.6743 17.3963H0.554837V1.29282H10.3993L9.88838 2.87525H3.23077H2.74467V3.36134V7.39496V7.88105H3.23077H4.46809C6.30675 7.88105 7.8534 8.08442 8.97906 8.69603ZM25.4337 7.71558H24.9476V8.20168V17.3963H22.689V8.20168V7.71558H22.2029H18.9084V6.13315H29.3028L28.7918 7.71558H25.4337ZM33.7463 17.8151V23.5139H31.5565V6.46947C32.8186 6.07121 34.2903 5.79702 35.8134 5.79702C37.9954 5.79702 39.5785 6.39403 40.6145 7.39209C41.6484 8.38815 42.2013 9.84528 42.2013 11.6975C42.2013 13.4289 41.5916 14.8974 40.5491 15.9323C39.5069 16.967 38.0019 17.5979 36.1571 17.5979C35.5023 17.5979 34.9381 17.5339 34.3831 17.353L33.7463 17.1454V17.8151ZM33.7463 15.2605V15.6L34.065 15.7169C34.6398 15.9277 35.1952 16.0874 35.9744 16.0155C37.2391 16.0105 38.2532 15.603 38.9451 14.817C39.6325 14.036 39.9427 12.9479 39.9427 11.6975C39.9427 10.2992 39.5562 9.19897 38.7912 8.45079C38.0283 7.70473 36.9613 7.37945 35.7447 7.37945C35.0801 7.37945 34.6237 7.45317 34.1016 7.59906L33.7463 7.69834V8.06723V15.2605ZM48.874 17.3963H44.9607V6.13315H47.1506V10.0168V10.5755L47.7039 10.4982C48.1466 10.4364 48.5948 10.4357 49.0115 10.4357C50.9392 10.4357 52.1502 10.8753 52.873 11.4883C53.5842 12.0916 53.8871 12.918 53.8871 13.8487C53.8871 14.8543 53.5795 15.711 52.8552 16.3273C52.1177 16.9548 50.8746 17.3963 48.874 17.3963ZM47.6367 11.8837H47.1506V12.3697V14.9761V15.4622V15.5294H47.6367V15.9483H48.874C49.941 15.9483 50.6885 15.7614 51.1663 15.3525C51.6695 14.9219 51.766 14.3418 51.766 13.8487C51.766 13.3178 51.6144 12.7617 51.0949 12.3625C50.607 11.9875 49.8743 11.8164 48.874 11.8164C48.6479 11.8164 48.425 11.8346 48.2244 11.8509L48.2158 11.8516C48.0063 11.8687 47.8198 11.8837 47.6367 11.8837ZM71.9527 17.3963H69.6171L68.1591 13.8005L68.1512 13.7808L68.1415 13.7619C67.9265 13.3415 67.7113 13.0058 67.4808 12.7697C67.2465 12.5296 66.9571 12.3542 66.6088 12.3542H64.7529H64.2668V12.8403V17.3963H62.1457V6.13315H64.3355V10.4874V10.9735H64.8216H66.2651C66.8065 10.9735 67.217 10.7346 67.522 10.3844C67.8096 10.0544 68.0081 9.62148 68.1707 9.20027C68.2537 8.98533 68.3321 8.76014 68.4087 8.53921L68.4184 8.51106C68.4926 8.29722 68.5655 8.08678 68.6436 7.8794C68.8073 7.44521 68.9833 7.05377 69.2056 6.73421C69.5908 6.19728 70.1274 5.86425 71.0769 5.86425C71.3278 5.86425 71.6281 5.86644 71.8969 5.90264V7.51634C71.8292 7.51343 71.7701 7.51366 71.724 7.51383C71.7139 7.51387 71.7044 7.5139 71.6956 7.5139C71.152 7.5139 70.726 7.70365 70.4162 8.10756L70.4106 8.11493L70.4052 8.12251C70.2154 8.3906 70.0737 8.70854 69.9541 9.01393C69.8934 9.16879 69.8355 9.32846 69.7794 9.4834L69.7749 9.49581C69.7197 9.64833 69.666 9.79659 69.6097 9.94225C69.3683 10.5661 69.1248 11.0021 68.7687 11.211L68.5286 11.3519V11.6303V11.6975V12.0503L68.8641 12.1596C69.2994 12.3016 69.633 12.6316 70.0229 13.3928L71.9527 17.3963ZM16.4239 6.13315V17.3963H14.2341V6.13315H16.4239ZM16.7676 1.88235C16.7676 2.60076 16.1824 3.21138 15.329 3.21138C14.4755 3.21138 13.8904 2.60076 13.8904 1.88235C13.8904 1.08533 14.4873 0.486097 15.329 0.486097C16.1706 0.486097 16.7676 1.08533 16.7676 1.88235ZM58.6301 6.13315V17.3963H56.4403V6.13315H58.6301ZM82.8579 15.4588L83.3943 16.7502C82.5032 17.2645 81.1781 17.6652 79.7381 17.6652C77.8266 17.6652 76.3965 17.0192 75.4341 16.002C74.4675 14.9805 73.9336 13.5428 73.9002 11.8946C73.9024 8.34701 76.5574 5.86425 80.0131 5.86425C81.3273 5.86425 82.2704 6.15829 82.8952 6.47347V7.80626C82.1631 7.44044 81.3326 7.24499 80.3568 7.24499C79.0584 7.24499 77.9951 7.73479 77.2613 8.55914C76.5333 9.37696 76.1587 10.49 76.1587 11.6975C76.1587 13.0651 76.5465 14.1727 77.2818 14.9411C78.019 15.7114 79.0501 16.0827 80.2193 16.0827C81.2813 16.0827 82.0859 15.825 82.8579 15.4588Z" fill="#171717" stroke="#171717" stroke-width="0.972194"/>
</svg>
