<svg width="81" height="29" viewBox="0 0 81 29" fill="none" xmlns="http://www.w3.org/2000/svg">
<path d="M61.2075 6.60315C63.1062 6.60315 64.8609 6.80583 66.9895 7.24056L65.4727 10.4601C64.2932 10.2283 65.3782 10.4291 64.487 10.3422V10.8061L64.5443 12.6897L64.5729 15.1245C64.6016 15.7329 64.6016 16.3417 64.6306 16.9504V18.1678C64.6306 21.9937 64.3142 23.7906 63.365 25.2687C61.9842 27.4427 59.5968 28.515 56.2026 28.515C54.4767 28.515 52.9812 28.2541 51.4276 27.6453V23.5298H51.4278C52.9814 24.3412 54.5345 24.7178 56.174 24.7178C59.079 24.7178 60.316 23.5298 60.316 20.6892V20.6022C59.4531 21.0368 58.5901 21.2108 57.4398 21.2108C53.5564 21.2108 51.0823 18.6313 51.0823 14.5447C51.0823 9.47215 54.7357 6.60315 61.2075 6.60315ZM21.0267 6.89296V17.24C21.0267 20.8051 20.7679 22.515 19.9913 23.9933C19.272 25.4137 18.3227 26.312 16.3668 27.2976L12.2534 25.3266C14.2094 24.3992 15.1586 23.5879 15.7626 22.3411C16.3956 21.0659 16.5971 19.5877 16.5971 15.704V6.89296H21.0267ZM73.8663 6.5162C78.2959 6.5162 81 9.3278 81 13.8781C81 18.5447 78.1813 21.4721 73.6938 21.4721C69.2638 21.4721 66.5311 18.6605 66.5311 14.1391C66.5313 9.44335 69.3504 6.5162 73.8663 6.5162ZM29.5705 6.57435C31.8429 6.57435 33.3386 7.18278 34.0003 8.37122C34.374 9.03779 34.4891 9.90724 34.4891 11.7624V20.8341C32.5041 21.1239 30.0018 21.327 28.161 21.327C24.4504 21.327 22.7818 20.0222 22.7818 17.1241C22.7818 13.9937 24.9967 12.5446 30.4334 12.0807V11.0953C30.4334 10.2838 30.0307 9.99419 28.9088 9.99419C27.2693 9.99419 25.4283 10.4579 23.7022 11.3565V7.90732H23.7024C25.6586 6.9801 27.5282 6.57435 29.5705 6.57435ZM13.9797 0V20.6604C11.7073 21.0951 10.0389 21.269 8.22683 21.269C2.81892 21.269 0 18.8056 0 14.081C0 9.53048 2.99168 6.57435 7.62263 6.57435C8.3417 6.57435 8.88819 6.63213 9.54991 6.80602V0H13.9797ZM43.6076 6.57435C45.88 6.57435 47.5196 7.09584 48.4979 8.11038C49.4183 9.06659 49.7058 10.1099 49.7058 12.3421V21.0949H45.276V12.516C45.276 10.8061 44.7007 10.1681 43.1188 10.1681C42.5148 10.1681 41.9683 10.226 41.0763 10.4869V21.0949H36.6467V7.58852C39.264 6.89296 41.4214 6.57435 43.6076 6.57435ZM30.6347 15.0084C27.7006 15.2982 26.7514 15.7621 26.7514 16.9214C26.7514 17.7908 27.2981 18.1966 28.5061 18.1966C29.1678 18.1966 29.7717 18.1388 30.6347 17.9939V15.0084ZM73.809 10.1101C72.0541 10.1101 71.047 11.5306 71.047 13.9938C71.0472 16.4577 72.0541 17.8778 73.7797 17.8778C75.477 17.8778 76.4839 16.4575 76.4839 13.9938C76.4839 11.5594 75.5058 10.1101 73.809 10.1101ZM8.05426 10.1681C5.81059 10.1681 4.51609 11.5594 4.51609 13.9938C4.51609 16.3707 5.75307 17.6749 8.0255 17.6749C8.51427 17.6749 8.91714 17.6459 9.54991 17.5592V10.3997C9.03219 10.226 8.60075 10.1681 8.05426 10.1681ZM57.2097 10.8345C56.1456 11.4433 55.5988 12.5448 55.5988 14.1098C55.5988 16.3417 56.6921 17.6169 58.648 17.6169C59.252 17.6169 59.7411 17.5008 60.3162 17.3271V15.7911C60.3162 15.2694 60.2876 14.6894 60.2876 14.081L60.259 12.0233L60.2301 10.545V10.1971H59.7697C58.907 10.1681 57.9003 10.3997 57.2097 10.8345ZM21.0267 0.0237463V4.60322H16.5971V0.0237463H21.0267Z" fill="#FAFAFA"/>
</svg>
