<svg width="36" height="32" viewBox="0 0 36 32" fill="none" xmlns="http://www.w3.org/2000/svg">
<path d="M0.0482143 4.23281C0.0482143 1.89141 2.20179 0.00703128 4.85357 0.00703128C7.26429 0.00703128 9.23304 1.54687 9.61071 3.53672C12.2304 3.00234 15.0027 3.57891 17.3652 5.64609L13.8054 8.76094C12.158 7.31953 10.3821 7.61484 9.35357 8.51484C8.20446 9.52031 8.20446 11.1797 9.35357 12.1852L17.3491 19.1813L13.8134 22.2961C6.76607 16.1648 9.81964 18.8016 5.79375 15.2859C3.64018 13.4227 2.98125 10.7297 3.80089 8.33203C1.63929 7.92422 0.0482143 6.24375 0.0482143 4.23281ZM10.4545 12.4172L14.0143 15.532C14.8179 14.8289 21.2223 9.225 22.0259 8.51484C23.175 7.50938 25.0473 7.50938 26.1964 8.51484C27.225 9.41484 27.5625 10.9758 25.9152 12.4102L29.4509 15.525C31.958 13.3313 32.5446 10.7719 31.7732 8.40938C34.1196 8.12109 35.9437 6.35625 35.9437 4.22578C35.9437 1.89141 33.7902 0 31.1384 0C28.7036 0 26.6866 1.58203 26.3571 3.62812C23.6411 2.93203 20.5955 3.52266 18.458 5.39297C16.9875 6.73594 12.7446 10.4203 10.4545 12.4172ZM31.8536 23.1188C32.5125 20.8195 31.7812 18.3023 29.7402 16.5164C28.792 15.6586 30.142 16.8469 21.7446 9.50625L18.1848 12.6211L26.1964 19.6313C27.3455 20.6367 27.3455 22.275 26.1964 23.2805C25.1679 24.1805 23.3839 24.4758 21.7446 23.0344L18.2089 26.1492C20.4268 28.2727 23.6732 28.8773 26.4616 28.118C26.9036 30.0445 28.8482 31.5 31.1946 31.5C33.8464 31.5 36 29.6156 36 27.2742C36 25.1508 34.192 23.407 31.8536 23.1188ZM25.0795 19.3852L21.5438 16.2703C14.5527 22.3453 17.4937 19.8141 13.5321 23.2875C12.383 24.293 10.5107 24.293 9.36161 23.2875C8.30893 22.3453 8.00357 20.8055 9.61875 19.3922L6.08304 16.2773C3.65625 18.4008 3.02946 20.8617 3.7125 23.1891C1.56696 23.6109 0 25.2914 0 27.2812C0 29.6227 2.15357 31.507 4.80536 31.507C7.10357 31.507 9.02411 30.1148 9.51429 28.2234C12.142 28.8 15.0188 28.1812 17.0839 26.3953C19.6634 24.1453 18.0643 25.5234 25.0795 19.3852Z" fill="#FAFAFA"/>
</svg>
