<svg width="37" height="32" viewBox="0 0 37 32" fill="none" xmlns="http://www.w3.org/2000/svg">
<path d="M36.4797 7.1351C36.493 7.17714 36.5 7.2205 36.5 7.26405V14.034C36.5 14.2108 36.3888 14.3742 36.2085 14.4622L29.5319 17.7336V24.2178C29.5319 24.3943 29.4217 24.5572 29.2419 24.646L15.3048 31.4739C15.2729 31.4893 15.2381 31.4992 15.2033 31.5097C15.1903 31.5134 15.178 31.5202 15.1642 31.5233C15.0668 31.5451 14.9644 31.5451 14.8669 31.5233C14.851 31.5196 14.8365 31.5122 14.8213 31.5072C14.7894 31.4974 14.756 31.4887 14.7256 31.4739L0.791457 24.646C0.611287 24.5579 0.5 24.3946 0.5 24.2178V3.9081C0.5 3.86368 0.50725 3.82049 0.5203 3.77853C0.524651 3.76434 0.534801 3.75138 0.540601 3.73719C0.551476 3.71127 0.561626 3.68474 0.577577 3.66068C0.588452 3.64464 0.604402 3.63168 0.617453 3.61687C0.634128 3.59713 0.649354 3.57676 0.668929 3.55949C0.685604 3.5453 0.707355 3.53481 0.726205 3.52247C0.747231 3.50766 0.766081 3.49162 0.790007 3.47989H0.790732L7.75815 0.0659413C7.93768 -0.0219804 8.15862 -0.0219804 8.33816 0.0659413L15.3056 3.47989H15.307C15.3302 3.49223 15.3498 3.50766 15.3708 3.52185C15.3897 3.53419 15.4107 3.5453 15.4274 3.55887C15.4477 3.57676 15.4622 3.59713 15.4796 3.61687C15.4919 3.63168 15.5086 3.64464 15.5187 3.66068C15.5354 3.68536 15.5448 3.71127 15.5564 3.73719C15.5622 3.75138 15.5724 3.76434 15.5767 3.77915C15.5901 3.82119 15.5969 3.86455 15.597 3.9081V16.5933L21.403 13.7483V7.26344C21.403 7.22024 21.4102 7.17644 21.4233 7.1351C21.4283 7.12029 21.4378 7.10733 21.4436 7.09314C21.4552 7.06722 21.4653 7.04069 21.4813 7.01663C21.4921 7.00059 21.5081 6.98763 21.5204 6.97282C21.5378 6.95308 21.5523 6.93272 21.5726 6.91544C21.5893 6.90125 21.6103 6.89076 21.6292 6.87842C21.6509 6.86361 21.6698 6.84757 21.693 6.83584H21.6937L28.6618 3.42189C28.8413 3.33384 29.0624 3.33384 29.2419 3.42189L36.2093 6.83584C36.2339 6.84818 36.2528 6.86361 36.2745 6.8778C36.2926 6.89014 36.3137 6.90125 36.3303 6.91482C36.3506 6.93272 36.3651 6.95308 36.3825 6.97282C36.3956 6.98763 36.4115 7.00059 36.4217 7.01663C36.4384 7.04069 36.4478 7.06722 36.4594 7.09314C36.4659 7.10733 36.4753 7.12029 36.4797 7.1351ZM35.3385 13.7483V8.11862L32.9003 9.31316L29.5319 10.9637V16.5933L35.3392 13.7483H35.3385ZM28.3711 23.9321V18.2988L25.0578 19.9092L15.5963 24.5047V30.1911L28.3711 23.9321ZM1.66148 4.76267V23.9321L14.4348 30.1905V24.5053L7.76177 21.2913L7.7596 21.2901L7.7567 21.2888C7.73422 21.2777 7.71537 21.2617 7.69434 21.2481C7.67622 21.2358 7.65519 21.2259 7.63924 21.2123L7.63779 21.2105C7.61894 21.195 7.60589 21.1759 7.58994 21.1586C7.57544 21.142 7.55804 21.1278 7.54644 21.1105L7.54572 21.1087C7.53267 21.0902 7.52469 21.0679 7.51527 21.047C7.50584 21.0285 7.49352 21.0112 7.48772 20.9914V20.9908C7.48046 20.9674 7.47901 20.9427 7.47611 20.9186C7.47321 20.9001 7.46741 20.8816 7.46741 20.8631V20.8619V7.60773L4.09971 5.9566L1.66148 4.76329V4.76267ZM8.04888 1.06427L2.24367 3.9081L8.04743 6.75193L13.8519 3.90748L8.04743 1.06427H8.04888ZM11.0679 18.8121L14.4356 17.1622V4.76267L11.9973 5.95721L8.62889 7.60773V20.0073L11.0679 18.8121ZM28.9518 4.42023L23.1474 7.26405L28.9518 10.1079L34.7556 7.26344L28.9518 4.42023ZM28.3711 10.9637L25.0027 9.31316L22.5644 8.11862V13.7483L25.9321 15.3982L28.3711 16.5933V10.9637ZM15.0148 23.6502L23.5287 19.5137L27.7846 17.4467L21.9844 14.6047L15.3063 17.8767L9.21978 20.8588L15.0148 23.6502Z" fill="#FAFAFA"/>
</svg>
