<svg width="119" height="23" viewBox="0 0 119 23" fill="none" xmlns="http://www.w3.org/2000/svg">
<path d="M11.7956 11.9666C11.7956 13.7304 11.2671 15.2161 10.2063 16.4188C9.09932 17.6789 7.66086 18.3115 5.90003 18.3115C4.13455 18.3115 2.70074 17.6789 1.59372 16.4188C0.532479 15.2161 0 13.7304 0 11.9666C0 10.198 0.532479 8.71283 1.59372 7.51453C2.71306 6.26618 4.15152 5.64235 5.90003 5.64235C7.66086 5.64235 9.09932 6.26618 10.2063 7.51453C11.2671 8.71283 11.7956 10.198 11.7956 11.9666ZM8.28979 11.9666C8.28979 11.1678 8.09711 10.4934 7.71129 9.94826C7.27969 9.32858 6.67562 9.02071 5.90003 9.02071C5.12421 9.02071 4.52037 9.32858 4.0883 9.94826C3.69853 10.4934 3.50562 11.1678 3.50562 11.9666C3.50562 12.7611 3.69853 13.4435 4.0883 14.0051C4.52037 14.6248 5.12421 14.9331 5.90003 14.9331C6.67562 14.9331 7.27969 14.6248 7.71129 14.0051C8.09711 13.4435 8.28979 12.7611 8.28979 11.9666ZM24.4717 11.9666C24.4717 13.6142 23.9936 15.0537 23.0332 16.2852C22.0059 17.6332 20.6809 18.3115 19.0707 18.3115C17.9341 18.3115 16.9701 17.9828 16.1817 17.3339C16.1817 17.4833 16.1984 17.8454 16.2321 18.4242C16.2656 19.0061 16.2821 19.4805 16.2821 19.855C16.2821 21.9234 15.6615 22.955 14.4206 22.955C13.913 22.955 13.4981 22.776 13.1667 22.4223C12.8397 22.0648 12.6761 21.6354 12.6761 21.1285V7.67688C12.6761 7.18589 12.8439 6.76132 13.1792 6.40386C13.5146 6.05009 13.93 5.87159 14.4248 5.87159C15.1709 5.87159 15.7161 6.24104 16.0601 6.9781C16.7939 6.08768 17.7961 5.64235 19.0665 5.64235C20.6809 5.64235 22.0018 6.30769 23.0332 7.64367C23.9894 8.87957 24.4717 10.3191 24.4717 11.9666ZM20.9658 11.9666C20.9658 11.1678 20.7692 10.4934 20.3834 9.94826C19.9511 9.32858 19.3475 9.02071 18.5717 9.02071C17.7961 9.02071 17.1922 9.32858 16.7602 9.94826C16.3744 10.4934 16.1817 11.1678 16.1817 11.9666C16.1817 12.7611 16.3744 13.4435 16.7602 14.0051C17.1922 14.6248 17.7961 14.9331 18.5717 14.9331C19.3475 14.9331 19.9511 14.6248 20.3834 14.0051C20.7692 13.4435 20.9658 12.7611 20.9658 11.9666ZM37.2272 11.5926C37.2272 12.1744 37.0887 12.5739 36.8119 12.799C36.5353 13.0192 36.1035 13.1315 35.5206 13.1315H29.1929C29.1929 13.7973 29.5076 14.3088 30.1365 14.6663C30.6439 14.9456 31.2645 15.0874 31.9982 15.0874C32.5688 15.0874 33.2521 14.8994 34.0531 14.5298C34.854 14.155 35.3695 13.9717 35.5922 13.9717C35.9987 13.9717 36.3424 14.1174 36.6276 14.417C36.9084 14.7126 37.0513 15.0703 37.0513 15.4825C37.0513 16.4347 36.3343 17.1761 34.8998 17.7084C33.8055 18.1076 32.6943 18.3115 31.5582 18.3115C29.73 18.3115 28.2539 17.7084 27.126 16.5062C25.9978 15.3035 25.4321 13.7932 25.4321 11.9666C25.4321 10.2271 26.0189 8.74189 27.1929 7.50253C28.3627 6.26203 29.8181 5.64235 31.5538 5.64235C33.1682 5.64235 34.5184 6.22905 35.6005 7.40222C36.682 8.57584 37.2272 9.97363 37.2272 11.5926ZM33.7219 10.7183C33.7049 10.1856 33.4576 9.70311 32.9795 9.26586C32.5014 8.82929 31.9943 8.6132 31.4574 8.6132C30.904 8.6132 30.388 8.82929 29.9101 9.26586C29.4323 9.70311 29.1929 10.1856 29.1929 10.7183H33.7219ZM49.0059 16.2557C49.0059 16.7638 48.8423 17.192 48.5155 17.55C48.1841 17.904 47.769 18.0829 47.2616 18.0829C46.0372 18.0829 45.4248 17.1175 45.4248 15.1912C45.4248 14.8208 45.4501 14.2385 45.5003 13.4355C45.5549 12.6364 45.5803 12.0499 45.5803 11.6795C45.5803 9.63623 44.9134 8.6132 43.5842 8.6132C42.2548 8.6132 41.5924 9.63623 41.5924 11.6795C41.5924 12.0499 41.6133 12.6364 41.6509 13.4355C41.693 14.2385 41.7139 14.8208 41.7139 15.1912C41.7139 17.1175 41.1101 18.0829 39.9027 18.0829C39.395 18.0829 38.9802 17.904 38.6529 17.55C38.3217 17.192 38.1581 16.7638 38.1581 16.2557V7.67319C38.1581 7.16883 38.3217 6.74103 38.6529 6.39556C38.9802 6.04594 39.3995 5.87159 39.9068 5.87159C40.7454 5.87159 41.3281 6.24104 41.6551 6.9781C42.2213 6.08768 43.2233 5.64235 44.6575 5.64235C45.9868 5.64235 47.0436 5.99151 47.8192 6.68637C48.6117 7.43173 49.0059 8.45476 49.0059 9.75731V16.2557ZM60.0041 15.886C60.0041 16.6722 59.4895 17.296 58.4574 17.7543C57.6357 18.1242 56.7679 18.3115 55.8535 18.3115C54.0878 18.3115 52.654 17.6789 51.547 16.4188C50.4862 15.2161 49.9537 13.7304 49.9537 11.9666C49.9537 10.198 50.4946 8.70476 51.5805 7.48132C52.6666 6.25419 54.0878 5.64235 55.8535 5.64235C56.8725 5.64235 57.7489 5.79202 58.4787 6.08768C59.497 6.48711 60.0041 7.11094 60.0041 7.95985C60.0041 8.38812 59.8707 8.76679 59.6018 9.09566C59.3338 9.42014 58.9896 9.58665 58.5705 9.58665C58.2849 9.58665 57.8742 9.49094 57.3375 9.30414C56.8011 9.11226 56.3737 9.02071 56.0592 9.02071C55.2246 9.02071 54.5745 9.31613 54.1092 9.90675C53.6769 10.4395 53.4591 11.1219 53.4591 11.9666C53.4591 12.7611 53.652 13.4355 54.0423 13.9804C54.4736 14.6172 55.0819 14.9331 55.8575 14.9331C56.2017 14.9331 56.671 14.8333 57.2704 14.6289C57.8705 14.4299 58.3026 14.3259 58.5705 14.3259C58.961 14.3259 59.2957 14.4919 59.5813 14.8167C59.8623 15.1453 60.0041 15.4986 60.0041 15.886ZM72.7476 16.2557C72.7476 16.7638 72.5844 17.192 72.2569 17.55C71.926 17.904 71.5069 18.0829 70.9986 18.0829C70.2356 18.0829 69.691 17.7123 69.3638 16.9759C68.6302 17.8666 67.6278 18.3115 66.3574 18.3115C64.7309 18.3115 63.3972 17.6332 62.3651 16.2852C61.4258 15.0537 60.9529 13.6142 60.9529 11.9666C60.9529 10.3191 61.4258 8.87957 62.3651 7.64367C63.414 6.30769 64.743 5.64235 66.3574 5.64235C67.6278 5.64235 68.6302 6.08768 69.3638 6.9781C69.691 6.24104 70.2356 5.87159 70.9986 5.87159C71.4939 5.87159 71.9092 6.05009 72.2451 6.40386C72.5798 6.76132 72.7476 7.18174 72.7476 7.67319V16.2557ZM69.2422 11.9666C69.2422 11.1678 69.0495 10.4934 68.6637 9.94826C68.2149 9.32858 67.6111 9.02071 66.8524 9.02071C66.0764 9.02071 65.4728 9.32858 65.0405 9.94826C64.6512 10.4934 64.4583 11.1678 64.4583 11.9666C64.4583 12.7611 64.6463 13.4435 65.0193 14.0051C65.4644 14.6248 66.0764 14.9331 66.8524 14.9331C67.6278 14.9331 68.2314 14.6248 68.6637 14.0051C69.0495 13.4435 69.2422 12.7611 69.2422 11.9666ZM81.6919 7.44373C81.6919 8.1884 81.3272 8.70014 80.5974 8.97873C79.9224 9.20382 79.251 9.43305 78.5807 9.66944C77.8462 10.0859 77.4816 10.8597 77.4816 11.9833V16.2557C77.4816 16.7638 77.3137 17.192 76.9874 17.55C76.6555 17.904 76.2362 18.0829 75.7291 18.0829C75.218 18.0829 74.798 17.904 74.4715 17.55C74.1396 17.192 73.9764 16.7638 73.9764 16.2557V7.67319C73.9764 7.16883 74.1396 6.74103 74.4668 6.39556C74.798 6.04594 75.218 5.87159 75.7254 5.87159C76.5635 5.87159 77.1459 6.24104 77.4734 6.9781C78.2244 6.08768 79.0295 5.64235 79.8973 5.64235C80.3917 5.64235 80.8154 5.82085 81.1678 6.17462C81.5155 6.53255 81.6919 6.95689 81.6919 7.44373ZM90.8372 7.60193C90.8372 8.37566 90.5311 8.8625 89.9238 9.07098C89.6251 9.17476 89.0001 9.22873 88.0486 9.22873V16.2557C88.0486 16.7638 87.8808 17.192 87.5545 17.55C87.2224 17.904 86.8033 18.0829 86.2959 18.0829C85.8018 18.0829 85.3816 17.904 85.046 17.55C84.7113 17.192 84.5432 16.7638 84.5432 16.2557V9.22873C83.8218 9.22873 83.2979 9.13717 82.9669 8.95867C82.5144 8.70891 82.2908 8.25528 82.2908 7.60193C82.2908 6.94905 82.5219 6.50372 82.9872 6.26618C83.3016 6.09137 83.8218 6.00027 84.5432 6.00027V4.5107C84.5432 2.75914 85.1257 1.88555 86.2959 1.88555C87.4617 1.88555 88.0486 2.75914 88.0486 4.5107V6.00027C89.0001 6.00027 89.6251 6.05424 89.9238 6.15802C90.5311 6.36604 90.8372 6.84919 90.8372 7.60193ZM119 5.48913C118.99 4.42116 117.002 3.93646 111.853 3.93646C99.7729 3.93646 96.7082 3.42448 93.4282 0C94.8079 2.05621 95.5628 5.91287 108.331 5.72099C121.653 5.51736 113.526 9.12933 111.162 13.2102C115.426 9.43358 118.987 6.9443 119 5.50466V5.48913ZM102.025 16.4559C102.025 17.4547 101.208 18.2656 100.201 18.2656C99.1898 18.2656 98.3726 17.4547 98.3726 16.4559C98.3726 15.4529 99.1898 14.6418 100.201 14.6418C101.208 14.6418 102.025 15.4529 102.025 16.4559ZM110.344 16.4559C110.344 17.4547 109.527 18.2656 108.52 18.2656C107.51 18.2656 106.692 17.4547 106.692 16.4559C106.692 15.4529 107.51 14.6418 108.52 14.6418C109.527 14.6418 110.344 15.4529 110.344 16.4559Z" fill="#FAFAFA"/>
</svg>
