<svg width="17" height="16" viewBox="0 0 17 16" fill="none" xmlns="http://www.w3.org/2000/svg">
<path d="M15.6042 1.19199V4.74399H12.0522" stroke="#FAFAFA" stroke-width="1.2" stroke-linecap="round" stroke-linejoin="round"/>
<path d="M1.39575 14.8079L1.39575 11.2559L4.94775 11.2559" stroke="#FAFAFA" stroke-width="1.2" stroke-linecap="round" stroke-linejoin="round"/>
<path d="M1.1001 7.99994C1.1001 6.43722 1.59482 4.91461 2.51337 3.65033C3.43192 2.38606 4.72713 1.44504 6.21337 0.962126C7.69962 0.479218 9.30058 0.479218 10.7868 0.962128C12.2731 1.44504 13.5683 2.38606 14.4868 3.65034" stroke="#FAFAFA" stroke-width="1.2" stroke-linecap="round"/>
<path d="M15.8999 7.99997C15.8999 9.5627 15.4052 11.0853 14.4866 12.3496C13.5681 13.6139 12.2729 14.5549 10.7866 15.0378C9.30039 15.5207 7.69942 15.5207 6.21318 15.0378C4.72694 14.5549 3.43173 13.6139 2.51318 12.3496" stroke="#FAFAFA" stroke-width="1.2" stroke-linecap="round"/>
<rect x="1.50146" y="11.4" width="1" height="1" fill="#FAFAFA"/>
<rect x="14.5015" y="3.49994" width="1" height="1" fill="#FAFAFA"/>
</svg>
