<svg width="36" height="36" viewBox="0 0 36 36" fill="none" xmlns="http://www.w3.org/2000/svg">
<g clip-path="url(#clip0_2648_15099)">
<path d="M18 0C8.076 0 0 8.076 0 18C0 27.924 8.076 36 18 36C27.924 36 36 27.924 36 18C36 8.076 27.924 0 18 0ZM18 1.1625C27.288 1.1625 34.8375 8.712 34.8375 18C34.8375 27.288 27.288 34.8375 18 34.8375C8.712 34.8375 1.1625 27.288 1.1625 18C1.1625 8.712 8.712 1.1625 18 1.1625ZM13.356 9.876C11.316 9.876 9.576 11.616 9.576 14.8065L11.604 15.096C11.892 13.068 12.468 12.1935 13.632 12.1935C14.796 12.1935 15.3825 12.4785 17.412 13.644C19.4385 14.808 20.0145 15.096 22.0545 15.096C24.0945 15.096 26.1255 13.6425 25.8375 10.1625H23.805C23.805 11.9025 23.232 12.78 22.068 12.78C20.904 12.78 20.3145 12.4935 17.9985 11.3295C15.6825 10.1655 15.3945 9.876 13.3545 9.876H13.356ZM16.5465 15.096V28.4535H18.876V15.9735L16.5465 15.096Z" fill="#FAFAFA"/>
</g>
<defs>
<clipPath id="clip0_2648_15099">
<rect width="36" height="36" fill="white"/>
</clipPath>
</defs>
</svg>
